<svg width="17" height="16" viewBox="0 0 17 16" fill="none" xmlns="http://www.w3.org/2000/svg">
<path d="M5.83333 1.33333V3.33333" stroke="#787486" stroke-width="1.3" stroke-miterlimit="10" stroke-linecap="round" stroke-linejoin="round"/>
<path d="M11.1667 1.33333V3.33333" stroke="#787486" stroke-width="1.3" stroke-miterlimit="10" stroke-linecap="round" stroke-linejoin="round"/>
<path d="M11.1667 2.33333C13.3867 2.45333 14.5 3.29999 14.5 6.43333V10.5533C14.5 13.3 13.8333 14.6733 10.5 14.6733H6.5C3.16667 14.6733 2.5 13.3 2.5 10.5533V6.43333C2.5 3.29999 3.61333 2.45999 5.83333 2.33333H11.1667Z" stroke="#787486" stroke-width="1.3" stroke-miterlimit="10" stroke-linecap="round" stroke-linejoin="round"/>
<path d="M14.3333 11.7333H2.66667" stroke="#787486" stroke-width="1.3" stroke-miterlimit="10" stroke-linecap="round" stroke-linejoin="round"/>
<path d="M8.49999 5.5C7.67999 5.5 6.98666 5.94667 6.98666 6.81333C6.98666 7.22667 7.17999 7.54 7.47333 7.74C7.06666 7.98 6.83333 8.36667 6.83333 8.82C6.83333 9.64667 7.46666 10.16 8.49999 10.16C9.52666 10.16 10.1667 9.64667 10.1667 8.82C10.1667 8.36667 9.93333 7.97333 9.51999 7.74C9.81999 7.53333 10.0067 7.22667 10.0067 6.81333C10.0067 5.94667 9.31999 5.5 8.49999 5.5ZM8.49999 7.39333C8.15333 7.39333 7.9 7.18667 7.9 6.86C7.9 6.52667 8.15333 6.33333 8.49999 6.33333C8.84666 6.33333 9.09999 6.52667 9.09999 6.86C9.09999 7.18667 8.84666 7.39333 8.49999 7.39333ZM8.49999 9.33333C8.05999 9.33333 7.73999 9.11333 7.73999 8.71333C7.73999 8.31333 8.05999 8.1 8.49999 8.1C8.94 8.1 9.26 8.32 9.26 8.71333C9.26 9.11333 8.94 9.33333 8.49999 9.33333Z" fill="#787486"/>
</svg>
